G75*
%MOIN*%
%OFA0B0*%
%FSLAX25Y25*%
%IPPOS*%
%LPD*%
%AMOC8*
5,1,8,0,0,1.08239X$1,22.5*
%
%ADD10C,0.02000*%
%ADD11C,0.04000*%
%ADD12C,0.00000*%
D10*
X0302000Y0003000D02*
X0302000Y0241701D01*
X0611921Y0241701D01*
X0611921Y0003000D02*
X0302000Y0003000D01*
D11*
X0611921Y0003000D02*
X0611921Y0241701D01*
D12*
X0027000Y0228000D02*
X0027000Y0018000D01*
X0287000Y0018000D01*
X0287000Y0028000D01*
X0297000Y0038000D01*
X0297000Y0167000D01*
X0287000Y0177000D01*
X0287000Y0222000D01*
X0281000Y0228000D01*
X0027000Y0228000D01*
X0080701Y0218000D02*
X0080703Y0218158D01*
X0080709Y0218316D01*
X0080719Y0218474D01*
X0080733Y0218632D01*
X0080751Y0218789D01*
X0080772Y0218946D01*
X0080798Y0219102D01*
X0080828Y0219258D01*
X0080861Y0219413D01*
X0080899Y0219566D01*
X0080940Y0219719D01*
X0080985Y0219871D01*
X0081034Y0220022D01*
X0081087Y0220171D01*
X0081143Y0220319D01*
X0081203Y0220465D01*
X0081267Y0220610D01*
X0081335Y0220753D01*
X0081406Y0220895D01*
X0081480Y0221035D01*
X0081558Y0221172D01*
X0081640Y0221308D01*
X0081724Y0221442D01*
X0081813Y0221573D01*
X0081904Y0221702D01*
X0081999Y0221829D01*
X0082096Y0221954D01*
X0082197Y0222076D01*
X0082301Y0222195D01*
X0082408Y0222312D01*
X0082518Y0222426D01*
X0082631Y0222537D01*
X0082746Y0222646D01*
X0082864Y0222751D01*
X0082985Y0222853D01*
X0083108Y0222953D01*
X0083234Y0223049D01*
X0083362Y0223142D01*
X0083492Y0223232D01*
X0083625Y0223318D01*
X0083760Y0223402D01*
X0083896Y0223481D01*
X0084035Y0223558D01*
X0084176Y0223630D01*
X0084318Y0223700D01*
X0084462Y0223765D01*
X0084608Y0223827D01*
X0084755Y0223885D01*
X0084904Y0223940D01*
X0085054Y0223991D01*
X0085205Y0224038D01*
X0085357Y0224081D01*
X0085510Y0224120D01*
X0085665Y0224156D01*
X0085820Y0224187D01*
X0085976Y0224215D01*
X0086132Y0224239D01*
X0086289Y0224259D01*
X0086447Y0224275D01*
X0086604Y0224287D01*
X0086763Y0224295D01*
X0086921Y0224299D01*
X0087079Y0224299D01*
X0087237Y0224295D01*
X0087396Y0224287D01*
X0087553Y0224275D01*
X0087711Y0224259D01*
X0087868Y0224239D01*
X0088024Y0224215D01*
X0088180Y0224187D01*
X0088335Y0224156D01*
X0088490Y0224120D01*
X0088643Y0224081D01*
X0088795Y0224038D01*
X0088946Y0223991D01*
X0089096Y0223940D01*
X0089245Y0223885D01*
X0089392Y0223827D01*
X0089538Y0223765D01*
X0089682Y0223700D01*
X0089824Y0223630D01*
X0089965Y0223558D01*
X0090104Y0223481D01*
X0090240Y0223402D01*
X0090375Y0223318D01*
X0090508Y0223232D01*
X0090638Y0223142D01*
X0090766Y0223049D01*
X0090892Y0222953D01*
X0091015Y0222853D01*
X0091136Y0222751D01*
X0091254Y0222646D01*
X0091369Y0222537D01*
X0091482Y0222426D01*
X0091592Y0222312D01*
X0091699Y0222195D01*
X0091803Y0222076D01*
X0091904Y0221954D01*
X0092001Y0221829D01*
X0092096Y0221702D01*
X0092187Y0221573D01*
X0092276Y0221442D01*
X0092360Y0221308D01*
X0092442Y0221172D01*
X0092520Y0221035D01*
X0092594Y0220895D01*
X0092665Y0220753D01*
X0092733Y0220610D01*
X0092797Y0220465D01*
X0092857Y0220319D01*
X0092913Y0220171D01*
X0092966Y0220022D01*
X0093015Y0219871D01*
X0093060Y0219719D01*
X0093101Y0219566D01*
X0093139Y0219413D01*
X0093172Y0219258D01*
X0093202Y0219102D01*
X0093228Y0218946D01*
X0093249Y0218789D01*
X0093267Y0218632D01*
X0093281Y0218474D01*
X0093291Y0218316D01*
X0093297Y0218158D01*
X0093299Y0218000D01*
X0093297Y0217842D01*
X0093291Y0217684D01*
X0093281Y0217526D01*
X0093267Y0217368D01*
X0093249Y0217211D01*
X0093228Y0217054D01*
X0093202Y0216898D01*
X0093172Y0216742D01*
X0093139Y0216587D01*
X0093101Y0216434D01*
X0093060Y0216281D01*
X0093015Y0216129D01*
X0092966Y0215978D01*
X0092913Y0215829D01*
X0092857Y0215681D01*
X0092797Y0215535D01*
X0092733Y0215390D01*
X0092665Y0215247D01*
X0092594Y0215105D01*
X0092520Y0214965D01*
X0092442Y0214828D01*
X0092360Y0214692D01*
X0092276Y0214558D01*
X0092187Y0214427D01*
X0092096Y0214298D01*
X0092001Y0214171D01*
X0091904Y0214046D01*
X0091803Y0213924D01*
X0091699Y0213805D01*
X0091592Y0213688D01*
X0091482Y0213574D01*
X0091369Y0213463D01*
X0091254Y0213354D01*
X0091136Y0213249D01*
X0091015Y0213147D01*
X0090892Y0213047D01*
X0090766Y0212951D01*
X0090638Y0212858D01*
X0090508Y0212768D01*
X0090375Y0212682D01*
X0090240Y0212598D01*
X0090104Y0212519D01*
X0089965Y0212442D01*
X0089824Y0212370D01*
X0089682Y0212300D01*
X0089538Y0212235D01*
X0089392Y0212173D01*
X0089245Y0212115D01*
X0089096Y0212060D01*
X0088946Y0212009D01*
X0088795Y0211962D01*
X0088643Y0211919D01*
X0088490Y0211880D01*
X0088335Y0211844D01*
X0088180Y0211813D01*
X0088024Y0211785D01*
X0087868Y0211761D01*
X0087711Y0211741D01*
X0087553Y0211725D01*
X0087396Y0211713D01*
X0087237Y0211705D01*
X0087079Y0211701D01*
X0086921Y0211701D01*
X0086763Y0211705D01*
X0086604Y0211713D01*
X0086447Y0211725D01*
X0086289Y0211741D01*
X0086132Y0211761D01*
X0085976Y0211785D01*
X0085820Y0211813D01*
X0085665Y0211844D01*
X0085510Y0211880D01*
X0085357Y0211919D01*
X0085205Y0211962D01*
X0085054Y0212009D01*
X0084904Y0212060D01*
X0084755Y0212115D01*
X0084608Y0212173D01*
X0084462Y0212235D01*
X0084318Y0212300D01*
X0084176Y0212370D01*
X0084035Y0212442D01*
X0083896Y0212519D01*
X0083760Y0212598D01*
X0083625Y0212682D01*
X0083492Y0212768D01*
X0083362Y0212858D01*
X0083234Y0212951D01*
X0083108Y0213047D01*
X0082985Y0213147D01*
X0082864Y0213249D01*
X0082746Y0213354D01*
X0082631Y0213463D01*
X0082518Y0213574D01*
X0082408Y0213688D01*
X0082301Y0213805D01*
X0082197Y0213924D01*
X0082096Y0214046D01*
X0081999Y0214171D01*
X0081904Y0214298D01*
X0081813Y0214427D01*
X0081724Y0214558D01*
X0081640Y0214692D01*
X0081558Y0214828D01*
X0081480Y0214965D01*
X0081406Y0215105D01*
X0081335Y0215247D01*
X0081267Y0215390D01*
X0081203Y0215535D01*
X0081143Y0215681D01*
X0081087Y0215829D01*
X0081034Y0215978D01*
X0080985Y0216129D01*
X0080940Y0216281D01*
X0080899Y0216434D01*
X0080861Y0216587D01*
X0080828Y0216742D01*
X0080798Y0216898D01*
X0080772Y0217054D01*
X0080751Y0217211D01*
X0080733Y0217368D01*
X0080719Y0217526D01*
X0080709Y0217684D01*
X0080703Y0217842D01*
X0080701Y0218000D01*
X0280701Y0158000D02*
X0280703Y0158158D01*
X0280709Y0158316D01*
X0280719Y0158474D01*
X0280733Y0158632D01*
X0280751Y0158789D01*
X0280772Y0158946D01*
X0280798Y0159102D01*
X0280828Y0159258D01*
X0280861Y0159413D01*
X0280899Y0159566D01*
X0280940Y0159719D01*
X0280985Y0159871D01*
X0281034Y0160022D01*
X0281087Y0160171D01*
X0281143Y0160319D01*
X0281203Y0160465D01*
X0281267Y0160610D01*
X0281335Y0160753D01*
X0281406Y0160895D01*
X0281480Y0161035D01*
X0281558Y0161172D01*
X0281640Y0161308D01*
X0281724Y0161442D01*
X0281813Y0161573D01*
X0281904Y0161702D01*
X0281999Y0161829D01*
X0282096Y0161954D01*
X0282197Y0162076D01*
X0282301Y0162195D01*
X0282408Y0162312D01*
X0282518Y0162426D01*
X0282631Y0162537D01*
X0282746Y0162646D01*
X0282864Y0162751D01*
X0282985Y0162853D01*
X0283108Y0162953D01*
X0283234Y0163049D01*
X0283362Y0163142D01*
X0283492Y0163232D01*
X0283625Y0163318D01*
X0283760Y0163402D01*
X0283896Y0163481D01*
X0284035Y0163558D01*
X0284176Y0163630D01*
X0284318Y0163700D01*
X0284462Y0163765D01*
X0284608Y0163827D01*
X0284755Y0163885D01*
X0284904Y0163940D01*
X0285054Y0163991D01*
X0285205Y0164038D01*
X0285357Y0164081D01*
X0285510Y0164120D01*
X0285665Y0164156D01*
X0285820Y0164187D01*
X0285976Y0164215D01*
X0286132Y0164239D01*
X0286289Y0164259D01*
X0286447Y0164275D01*
X0286604Y0164287D01*
X0286763Y0164295D01*
X0286921Y0164299D01*
X0287079Y0164299D01*
X0287237Y0164295D01*
X0287396Y0164287D01*
X0287553Y0164275D01*
X0287711Y0164259D01*
X0287868Y0164239D01*
X0288024Y0164215D01*
X0288180Y0164187D01*
X0288335Y0164156D01*
X0288490Y0164120D01*
X0288643Y0164081D01*
X0288795Y0164038D01*
X0288946Y0163991D01*
X0289096Y0163940D01*
X0289245Y0163885D01*
X0289392Y0163827D01*
X0289538Y0163765D01*
X0289682Y0163700D01*
X0289824Y0163630D01*
X0289965Y0163558D01*
X0290104Y0163481D01*
X0290240Y0163402D01*
X0290375Y0163318D01*
X0290508Y0163232D01*
X0290638Y0163142D01*
X0290766Y0163049D01*
X0290892Y0162953D01*
X0291015Y0162853D01*
X0291136Y0162751D01*
X0291254Y0162646D01*
X0291369Y0162537D01*
X0291482Y0162426D01*
X0291592Y0162312D01*
X0291699Y0162195D01*
X0291803Y0162076D01*
X0291904Y0161954D01*
X0292001Y0161829D01*
X0292096Y0161702D01*
X0292187Y0161573D01*
X0292276Y0161442D01*
X0292360Y0161308D01*
X0292442Y0161172D01*
X0292520Y0161035D01*
X0292594Y0160895D01*
X0292665Y0160753D01*
X0292733Y0160610D01*
X0292797Y0160465D01*
X0292857Y0160319D01*
X0292913Y0160171D01*
X0292966Y0160022D01*
X0293015Y0159871D01*
X0293060Y0159719D01*
X0293101Y0159566D01*
X0293139Y0159413D01*
X0293172Y0159258D01*
X0293202Y0159102D01*
X0293228Y0158946D01*
X0293249Y0158789D01*
X0293267Y0158632D01*
X0293281Y0158474D01*
X0293291Y0158316D01*
X0293297Y0158158D01*
X0293299Y0158000D01*
X0293297Y0157842D01*
X0293291Y0157684D01*
X0293281Y0157526D01*
X0293267Y0157368D01*
X0293249Y0157211D01*
X0293228Y0157054D01*
X0293202Y0156898D01*
X0293172Y0156742D01*
X0293139Y0156587D01*
X0293101Y0156434D01*
X0293060Y0156281D01*
X0293015Y0156129D01*
X0292966Y0155978D01*
X0292913Y0155829D01*
X0292857Y0155681D01*
X0292797Y0155535D01*
X0292733Y0155390D01*
X0292665Y0155247D01*
X0292594Y0155105D01*
X0292520Y0154965D01*
X0292442Y0154828D01*
X0292360Y0154692D01*
X0292276Y0154558D01*
X0292187Y0154427D01*
X0292096Y0154298D01*
X0292001Y0154171D01*
X0291904Y0154046D01*
X0291803Y0153924D01*
X0291699Y0153805D01*
X0291592Y0153688D01*
X0291482Y0153574D01*
X0291369Y0153463D01*
X0291254Y0153354D01*
X0291136Y0153249D01*
X0291015Y0153147D01*
X0290892Y0153047D01*
X0290766Y0152951D01*
X0290638Y0152858D01*
X0290508Y0152768D01*
X0290375Y0152682D01*
X0290240Y0152598D01*
X0290104Y0152519D01*
X0289965Y0152442D01*
X0289824Y0152370D01*
X0289682Y0152300D01*
X0289538Y0152235D01*
X0289392Y0152173D01*
X0289245Y0152115D01*
X0289096Y0152060D01*
X0288946Y0152009D01*
X0288795Y0151962D01*
X0288643Y0151919D01*
X0288490Y0151880D01*
X0288335Y0151844D01*
X0288180Y0151813D01*
X0288024Y0151785D01*
X0287868Y0151761D01*
X0287711Y0151741D01*
X0287553Y0151725D01*
X0287396Y0151713D01*
X0287237Y0151705D01*
X0287079Y0151701D01*
X0286921Y0151701D01*
X0286763Y0151705D01*
X0286604Y0151713D01*
X0286447Y0151725D01*
X0286289Y0151741D01*
X0286132Y0151761D01*
X0285976Y0151785D01*
X0285820Y0151813D01*
X0285665Y0151844D01*
X0285510Y0151880D01*
X0285357Y0151919D01*
X0285205Y0151962D01*
X0285054Y0152009D01*
X0284904Y0152060D01*
X0284755Y0152115D01*
X0284608Y0152173D01*
X0284462Y0152235D01*
X0284318Y0152300D01*
X0284176Y0152370D01*
X0284035Y0152442D01*
X0283896Y0152519D01*
X0283760Y0152598D01*
X0283625Y0152682D01*
X0283492Y0152768D01*
X0283362Y0152858D01*
X0283234Y0152951D01*
X0283108Y0153047D01*
X0282985Y0153147D01*
X0282864Y0153249D01*
X0282746Y0153354D01*
X0282631Y0153463D01*
X0282518Y0153574D01*
X0282408Y0153688D01*
X0282301Y0153805D01*
X0282197Y0153924D01*
X0282096Y0154046D01*
X0281999Y0154171D01*
X0281904Y0154298D01*
X0281813Y0154427D01*
X0281724Y0154558D01*
X0281640Y0154692D01*
X0281558Y0154828D01*
X0281480Y0154965D01*
X0281406Y0155105D01*
X0281335Y0155247D01*
X0281267Y0155390D01*
X0281203Y0155535D01*
X0281143Y0155681D01*
X0281087Y0155829D01*
X0281034Y0155978D01*
X0280985Y0156129D01*
X0280940Y0156281D01*
X0280899Y0156434D01*
X0280861Y0156587D01*
X0280828Y0156742D01*
X0280798Y0156898D01*
X0280772Y0157054D01*
X0280751Y0157211D01*
X0280733Y0157368D01*
X0280719Y0157526D01*
X0280709Y0157684D01*
X0280703Y0157842D01*
X0280701Y0158000D01*
X0325031Y0223000D02*
X0325033Y0223088D01*
X0325039Y0223176D01*
X0325049Y0223264D01*
X0325063Y0223352D01*
X0325080Y0223438D01*
X0325102Y0223524D01*
X0325127Y0223608D01*
X0325157Y0223692D01*
X0325189Y0223774D01*
X0325226Y0223854D01*
X0325266Y0223933D01*
X0325310Y0224010D01*
X0325357Y0224085D01*
X0325407Y0224157D01*
X0325461Y0224228D01*
X0325517Y0224295D01*
X0325577Y0224361D01*
X0325639Y0224423D01*
X0325705Y0224483D01*
X0325772Y0224539D01*
X0325843Y0224593D01*
X0325915Y0224643D01*
X0325990Y0224690D01*
X0326067Y0224734D01*
X0326146Y0224774D01*
X0326226Y0224811D01*
X0326308Y0224843D01*
X0326392Y0224873D01*
X0326476Y0224898D01*
X0326562Y0224920D01*
X0326648Y0224937D01*
X0326736Y0224951D01*
X0326824Y0224961D01*
X0326912Y0224967D01*
X0327000Y0224969D01*
X0327088Y0224967D01*
X0327176Y0224961D01*
X0327264Y0224951D01*
X0327352Y0224937D01*
X0327438Y0224920D01*
X0327524Y0224898D01*
X0327608Y0224873D01*
X0327692Y0224843D01*
X0327774Y0224811D01*
X0327854Y0224774D01*
X0327933Y0224734D01*
X0328010Y0224690D01*
X0328085Y0224643D01*
X0328157Y0224593D01*
X0328228Y0224539D01*
X0328295Y0224483D01*
X0328361Y0224423D01*
X0328423Y0224361D01*
X0328483Y0224295D01*
X0328539Y0224228D01*
X0328593Y0224157D01*
X0328643Y0224085D01*
X0328690Y0224010D01*
X0328734Y0223933D01*
X0328774Y0223854D01*
X0328811Y0223774D01*
X0328843Y0223692D01*
X0328873Y0223608D01*
X0328898Y0223524D01*
X0328920Y0223438D01*
X0328937Y0223352D01*
X0328951Y0223264D01*
X0328961Y0223176D01*
X0328967Y0223088D01*
X0328969Y0223000D01*
X0328967Y0222912D01*
X0328961Y0222824D01*
X0328951Y0222736D01*
X0328937Y0222648D01*
X0328920Y0222562D01*
X0328898Y0222476D01*
X0328873Y0222392D01*
X0328843Y0222308D01*
X0328811Y0222226D01*
X0328774Y0222146D01*
X0328734Y0222067D01*
X0328690Y0221990D01*
X0328643Y0221915D01*
X0328593Y0221843D01*
X0328539Y0221772D01*
X0328483Y0221705D01*
X0328423Y0221639D01*
X0328361Y0221577D01*
X0328295Y0221517D01*
X0328228Y0221461D01*
X0328157Y0221407D01*
X0328085Y0221357D01*
X0328010Y0221310D01*
X0327933Y0221266D01*
X0327854Y0221226D01*
X0327774Y0221189D01*
X0327692Y0221157D01*
X0327608Y0221127D01*
X0327524Y0221102D01*
X0327438Y0221080D01*
X0327352Y0221063D01*
X0327264Y0221049D01*
X0327176Y0221039D01*
X0327088Y0221033D01*
X0327000Y0221031D01*
X0326912Y0221033D01*
X0326824Y0221039D01*
X0326736Y0221049D01*
X0326648Y0221063D01*
X0326562Y0221080D01*
X0326476Y0221102D01*
X0326392Y0221127D01*
X0326308Y0221157D01*
X0326226Y0221189D01*
X0326146Y0221226D01*
X0326067Y0221266D01*
X0325990Y0221310D01*
X0325915Y0221357D01*
X0325843Y0221407D01*
X0325772Y0221461D01*
X0325705Y0221517D01*
X0325639Y0221577D01*
X0325577Y0221639D01*
X0325517Y0221705D01*
X0325461Y0221772D01*
X0325407Y0221843D01*
X0325357Y0221915D01*
X0325310Y0221990D01*
X0325266Y0222067D01*
X0325226Y0222146D01*
X0325189Y0222226D01*
X0325157Y0222308D01*
X0325127Y0222392D01*
X0325102Y0222476D01*
X0325080Y0222562D01*
X0325063Y0222648D01*
X0325049Y0222736D01*
X0325039Y0222824D01*
X0325033Y0222912D01*
X0325031Y0223000D01*
X0595031Y0223000D02*
X0595033Y0223088D01*
X0595039Y0223176D01*
X0595049Y0223264D01*
X0595063Y0223352D01*
X0595080Y0223438D01*
X0595102Y0223524D01*
X0595127Y0223608D01*
X0595157Y0223692D01*
X0595189Y0223774D01*
X0595226Y0223854D01*
X0595266Y0223933D01*
X0595310Y0224010D01*
X0595357Y0224085D01*
X0595407Y0224157D01*
X0595461Y0224228D01*
X0595517Y0224295D01*
X0595577Y0224361D01*
X0595639Y0224423D01*
X0595705Y0224483D01*
X0595772Y0224539D01*
X0595843Y0224593D01*
X0595915Y0224643D01*
X0595990Y0224690D01*
X0596067Y0224734D01*
X0596146Y0224774D01*
X0596226Y0224811D01*
X0596308Y0224843D01*
X0596392Y0224873D01*
X0596476Y0224898D01*
X0596562Y0224920D01*
X0596648Y0224937D01*
X0596736Y0224951D01*
X0596824Y0224961D01*
X0596912Y0224967D01*
X0597000Y0224969D01*
X0597088Y0224967D01*
X0597176Y0224961D01*
X0597264Y0224951D01*
X0597352Y0224937D01*
X0597438Y0224920D01*
X0597524Y0224898D01*
X0597608Y0224873D01*
X0597692Y0224843D01*
X0597774Y0224811D01*
X0597854Y0224774D01*
X0597933Y0224734D01*
X0598010Y0224690D01*
X0598085Y0224643D01*
X0598157Y0224593D01*
X0598228Y0224539D01*
X0598295Y0224483D01*
X0598361Y0224423D01*
X0598423Y0224361D01*
X0598483Y0224295D01*
X0598539Y0224228D01*
X0598593Y0224157D01*
X0598643Y0224085D01*
X0598690Y0224010D01*
X0598734Y0223933D01*
X0598774Y0223854D01*
X0598811Y0223774D01*
X0598843Y0223692D01*
X0598873Y0223608D01*
X0598898Y0223524D01*
X0598920Y0223438D01*
X0598937Y0223352D01*
X0598951Y0223264D01*
X0598961Y0223176D01*
X0598967Y0223088D01*
X0598969Y0223000D01*
X0598967Y0222912D01*
X0598961Y0222824D01*
X0598951Y0222736D01*
X0598937Y0222648D01*
X0598920Y0222562D01*
X0598898Y0222476D01*
X0598873Y0222392D01*
X0598843Y0222308D01*
X0598811Y0222226D01*
X0598774Y0222146D01*
X0598734Y0222067D01*
X0598690Y0221990D01*
X0598643Y0221915D01*
X0598593Y0221843D01*
X0598539Y0221772D01*
X0598483Y0221705D01*
X0598423Y0221639D01*
X0598361Y0221577D01*
X0598295Y0221517D01*
X0598228Y0221461D01*
X0598157Y0221407D01*
X0598085Y0221357D01*
X0598010Y0221310D01*
X0597933Y0221266D01*
X0597854Y0221226D01*
X0597774Y0221189D01*
X0597692Y0221157D01*
X0597608Y0221127D01*
X0597524Y0221102D01*
X0597438Y0221080D01*
X0597352Y0221063D01*
X0597264Y0221049D01*
X0597176Y0221039D01*
X0597088Y0221033D01*
X0597000Y0221031D01*
X0596912Y0221033D01*
X0596824Y0221039D01*
X0596736Y0221049D01*
X0596648Y0221063D01*
X0596562Y0221080D01*
X0596476Y0221102D01*
X0596392Y0221127D01*
X0596308Y0221157D01*
X0596226Y0221189D01*
X0596146Y0221226D01*
X0596067Y0221266D01*
X0595990Y0221310D01*
X0595915Y0221357D01*
X0595843Y0221407D01*
X0595772Y0221461D01*
X0595705Y0221517D01*
X0595639Y0221577D01*
X0595577Y0221639D01*
X0595517Y0221705D01*
X0595461Y0221772D01*
X0595407Y0221843D01*
X0595357Y0221915D01*
X0595310Y0221990D01*
X0595266Y0222067D01*
X0595226Y0222146D01*
X0595189Y0222226D01*
X0595157Y0222308D01*
X0595127Y0222392D01*
X0595102Y0222476D01*
X0595080Y0222562D01*
X0595063Y0222648D01*
X0595049Y0222736D01*
X0595039Y0222824D01*
X0595033Y0222912D01*
X0595031Y0223000D01*
X0075701Y0028000D02*
X0075703Y0028158D01*
X0075709Y0028316D01*
X0075719Y0028474D01*
X0075733Y0028632D01*
X0075751Y0028789D01*
X0075772Y0028946D01*
X0075798Y0029102D01*
X0075828Y0029258D01*
X0075861Y0029413D01*
X0075899Y0029566D01*
X0075940Y0029719D01*
X0075985Y0029871D01*
X0076034Y0030022D01*
X0076087Y0030171D01*
X0076143Y0030319D01*
X0076203Y0030465D01*
X0076267Y0030610D01*
X0076335Y0030753D01*
X0076406Y0030895D01*
X0076480Y0031035D01*
X0076558Y0031172D01*
X0076640Y0031308D01*
X0076724Y0031442D01*
X0076813Y0031573D01*
X0076904Y0031702D01*
X0076999Y0031829D01*
X0077096Y0031954D01*
X0077197Y0032076D01*
X0077301Y0032195D01*
X0077408Y0032312D01*
X0077518Y0032426D01*
X0077631Y0032537D01*
X0077746Y0032646D01*
X0077864Y0032751D01*
X0077985Y0032853D01*
X0078108Y0032953D01*
X0078234Y0033049D01*
X0078362Y0033142D01*
X0078492Y0033232D01*
X0078625Y0033318D01*
X0078760Y0033402D01*
X0078896Y0033481D01*
X0079035Y0033558D01*
X0079176Y0033630D01*
X0079318Y0033700D01*
X0079462Y0033765D01*
X0079608Y0033827D01*
X0079755Y0033885D01*
X0079904Y0033940D01*
X0080054Y0033991D01*
X0080205Y0034038D01*
X0080357Y0034081D01*
X0080510Y0034120D01*
X0080665Y0034156D01*
X0080820Y0034187D01*
X0080976Y0034215D01*
X0081132Y0034239D01*
X0081289Y0034259D01*
X0081447Y0034275D01*
X0081604Y0034287D01*
X0081763Y0034295D01*
X0081921Y0034299D01*
X0082079Y0034299D01*
X0082237Y0034295D01*
X0082396Y0034287D01*
X0082553Y0034275D01*
X0082711Y0034259D01*
X0082868Y0034239D01*
X0083024Y0034215D01*
X0083180Y0034187D01*
X0083335Y0034156D01*
X0083490Y0034120D01*
X0083643Y0034081D01*
X0083795Y0034038D01*
X0083946Y0033991D01*
X0084096Y0033940D01*
X0084245Y0033885D01*
X0084392Y0033827D01*
X0084538Y0033765D01*
X0084682Y0033700D01*
X0084824Y0033630D01*
X0084965Y0033558D01*
X0085104Y0033481D01*
X0085240Y0033402D01*
X0085375Y0033318D01*
X0085508Y0033232D01*
X0085638Y0033142D01*
X0085766Y0033049D01*
X0085892Y0032953D01*
X0086015Y0032853D01*
X0086136Y0032751D01*
X0086254Y0032646D01*
X0086369Y0032537D01*
X0086482Y0032426D01*
X0086592Y0032312D01*
X0086699Y0032195D01*
X0086803Y0032076D01*
X0086904Y0031954D01*
X0087001Y0031829D01*
X0087096Y0031702D01*
X0087187Y0031573D01*
X0087276Y0031442D01*
X0087360Y0031308D01*
X0087442Y0031172D01*
X0087520Y0031035D01*
X0087594Y0030895D01*
X0087665Y0030753D01*
X0087733Y0030610D01*
X0087797Y0030465D01*
X0087857Y0030319D01*
X0087913Y0030171D01*
X0087966Y0030022D01*
X0088015Y0029871D01*
X0088060Y0029719D01*
X0088101Y0029566D01*
X0088139Y0029413D01*
X0088172Y0029258D01*
X0088202Y0029102D01*
X0088228Y0028946D01*
X0088249Y0028789D01*
X0088267Y0028632D01*
X0088281Y0028474D01*
X0088291Y0028316D01*
X0088297Y0028158D01*
X0088299Y0028000D01*
X0088297Y0027842D01*
X0088291Y0027684D01*
X0088281Y0027526D01*
X0088267Y0027368D01*
X0088249Y0027211D01*
X0088228Y0027054D01*
X0088202Y0026898D01*
X0088172Y0026742D01*
X0088139Y0026587D01*
X0088101Y0026434D01*
X0088060Y0026281D01*
X0088015Y0026129D01*
X0087966Y0025978D01*
X0087913Y0025829D01*
X0087857Y0025681D01*
X0087797Y0025535D01*
X0087733Y0025390D01*
X0087665Y0025247D01*
X0087594Y0025105D01*
X0087520Y0024965D01*
X0087442Y0024828D01*
X0087360Y0024692D01*
X0087276Y0024558D01*
X0087187Y0024427D01*
X0087096Y0024298D01*
X0087001Y0024171D01*
X0086904Y0024046D01*
X0086803Y0023924D01*
X0086699Y0023805D01*
X0086592Y0023688D01*
X0086482Y0023574D01*
X0086369Y0023463D01*
X0086254Y0023354D01*
X0086136Y0023249D01*
X0086015Y0023147D01*
X0085892Y0023047D01*
X0085766Y0022951D01*
X0085638Y0022858D01*
X0085508Y0022768D01*
X0085375Y0022682D01*
X0085240Y0022598D01*
X0085104Y0022519D01*
X0084965Y0022442D01*
X0084824Y0022370D01*
X0084682Y0022300D01*
X0084538Y0022235D01*
X0084392Y0022173D01*
X0084245Y0022115D01*
X0084096Y0022060D01*
X0083946Y0022009D01*
X0083795Y0021962D01*
X0083643Y0021919D01*
X0083490Y0021880D01*
X0083335Y0021844D01*
X0083180Y0021813D01*
X0083024Y0021785D01*
X0082868Y0021761D01*
X0082711Y0021741D01*
X0082553Y0021725D01*
X0082396Y0021713D01*
X0082237Y0021705D01*
X0082079Y0021701D01*
X0081921Y0021701D01*
X0081763Y0021705D01*
X0081604Y0021713D01*
X0081447Y0021725D01*
X0081289Y0021741D01*
X0081132Y0021761D01*
X0080976Y0021785D01*
X0080820Y0021813D01*
X0080665Y0021844D01*
X0080510Y0021880D01*
X0080357Y0021919D01*
X0080205Y0021962D01*
X0080054Y0022009D01*
X0079904Y0022060D01*
X0079755Y0022115D01*
X0079608Y0022173D01*
X0079462Y0022235D01*
X0079318Y0022300D01*
X0079176Y0022370D01*
X0079035Y0022442D01*
X0078896Y0022519D01*
X0078760Y0022598D01*
X0078625Y0022682D01*
X0078492Y0022768D01*
X0078362Y0022858D01*
X0078234Y0022951D01*
X0078108Y0023047D01*
X0077985Y0023147D01*
X0077864Y0023249D01*
X0077746Y0023354D01*
X0077631Y0023463D01*
X0077518Y0023574D01*
X0077408Y0023688D01*
X0077301Y0023805D01*
X0077197Y0023924D01*
X0077096Y0024046D01*
X0076999Y0024171D01*
X0076904Y0024298D01*
X0076813Y0024427D01*
X0076724Y0024558D01*
X0076640Y0024692D01*
X0076558Y0024828D01*
X0076480Y0024965D01*
X0076406Y0025105D01*
X0076335Y0025247D01*
X0076267Y0025390D01*
X0076203Y0025535D01*
X0076143Y0025681D01*
X0076087Y0025829D01*
X0076034Y0025978D01*
X0075985Y0026129D01*
X0075940Y0026281D01*
X0075899Y0026434D01*
X0075861Y0026587D01*
X0075828Y0026742D01*
X0075798Y0026898D01*
X0075772Y0027054D01*
X0075751Y0027211D01*
X0075733Y0027368D01*
X0075719Y0027526D01*
X0075709Y0027684D01*
X0075703Y0027842D01*
X0075701Y0028000D01*
X0330031Y0018000D02*
X0330033Y0018088D01*
X0330039Y0018176D01*
X0330049Y0018264D01*
X0330063Y0018352D01*
X0330080Y0018438D01*
X0330102Y0018524D01*
X0330127Y0018608D01*
X0330157Y0018692D01*
X0330189Y0018774D01*
X0330226Y0018854D01*
X0330266Y0018933D01*
X0330310Y0019010D01*
X0330357Y0019085D01*
X0330407Y0019157D01*
X0330461Y0019228D01*
X0330517Y0019295D01*
X0330577Y0019361D01*
X0330639Y0019423D01*
X0330705Y0019483D01*
X0330772Y0019539D01*
X0330843Y0019593D01*
X0330915Y0019643D01*
X0330990Y0019690D01*
X0331067Y0019734D01*
X0331146Y0019774D01*
X0331226Y0019811D01*
X0331308Y0019843D01*
X0331392Y0019873D01*
X0331476Y0019898D01*
X0331562Y0019920D01*
X0331648Y0019937D01*
X0331736Y0019951D01*
X0331824Y0019961D01*
X0331912Y0019967D01*
X0332000Y0019969D01*
X0332088Y0019967D01*
X0332176Y0019961D01*
X0332264Y0019951D01*
X0332352Y0019937D01*
X0332438Y0019920D01*
X0332524Y0019898D01*
X0332608Y0019873D01*
X0332692Y0019843D01*
X0332774Y0019811D01*
X0332854Y0019774D01*
X0332933Y0019734D01*
X0333010Y0019690D01*
X0333085Y0019643D01*
X0333157Y0019593D01*
X0333228Y0019539D01*
X0333295Y0019483D01*
X0333361Y0019423D01*
X0333423Y0019361D01*
X0333483Y0019295D01*
X0333539Y0019228D01*
X0333593Y0019157D01*
X0333643Y0019085D01*
X0333690Y0019010D01*
X0333734Y0018933D01*
X0333774Y0018854D01*
X0333811Y0018774D01*
X0333843Y0018692D01*
X0333873Y0018608D01*
X0333898Y0018524D01*
X0333920Y0018438D01*
X0333937Y0018352D01*
X0333951Y0018264D01*
X0333961Y0018176D01*
X0333967Y0018088D01*
X0333969Y0018000D01*
X0333967Y0017912D01*
X0333961Y0017824D01*
X0333951Y0017736D01*
X0333937Y0017648D01*
X0333920Y0017562D01*
X0333898Y0017476D01*
X0333873Y0017392D01*
X0333843Y0017308D01*
X0333811Y0017226D01*
X0333774Y0017146D01*
X0333734Y0017067D01*
X0333690Y0016990D01*
X0333643Y0016915D01*
X0333593Y0016843D01*
X0333539Y0016772D01*
X0333483Y0016705D01*
X0333423Y0016639D01*
X0333361Y0016577D01*
X0333295Y0016517D01*
X0333228Y0016461D01*
X0333157Y0016407D01*
X0333085Y0016357D01*
X0333010Y0016310D01*
X0332933Y0016266D01*
X0332854Y0016226D01*
X0332774Y0016189D01*
X0332692Y0016157D01*
X0332608Y0016127D01*
X0332524Y0016102D01*
X0332438Y0016080D01*
X0332352Y0016063D01*
X0332264Y0016049D01*
X0332176Y0016039D01*
X0332088Y0016033D01*
X0332000Y0016031D01*
X0331912Y0016033D01*
X0331824Y0016039D01*
X0331736Y0016049D01*
X0331648Y0016063D01*
X0331562Y0016080D01*
X0331476Y0016102D01*
X0331392Y0016127D01*
X0331308Y0016157D01*
X0331226Y0016189D01*
X0331146Y0016226D01*
X0331067Y0016266D01*
X0330990Y0016310D01*
X0330915Y0016357D01*
X0330843Y0016407D01*
X0330772Y0016461D01*
X0330705Y0016517D01*
X0330639Y0016577D01*
X0330577Y0016639D01*
X0330517Y0016705D01*
X0330461Y0016772D01*
X0330407Y0016843D01*
X0330357Y0016915D01*
X0330310Y0016990D01*
X0330266Y0017067D01*
X0330226Y0017146D01*
X0330189Y0017226D01*
X0330157Y0017308D01*
X0330127Y0017392D01*
X0330102Y0017476D01*
X0330080Y0017562D01*
X0330063Y0017648D01*
X0330049Y0017736D01*
X0330039Y0017824D01*
X0330033Y0017912D01*
X0330031Y0018000D01*
X0595031Y0018000D02*
X0595033Y0018088D01*
X0595039Y0018176D01*
X0595049Y0018264D01*
X0595063Y0018352D01*
X0595080Y0018438D01*
X0595102Y0018524D01*
X0595127Y0018608D01*
X0595157Y0018692D01*
X0595189Y0018774D01*
X0595226Y0018854D01*
X0595266Y0018933D01*
X0595310Y0019010D01*
X0595357Y0019085D01*
X0595407Y0019157D01*
X0595461Y0019228D01*
X0595517Y0019295D01*
X0595577Y0019361D01*
X0595639Y0019423D01*
X0595705Y0019483D01*
X0595772Y0019539D01*
X0595843Y0019593D01*
X0595915Y0019643D01*
X0595990Y0019690D01*
X0596067Y0019734D01*
X0596146Y0019774D01*
X0596226Y0019811D01*
X0596308Y0019843D01*
X0596392Y0019873D01*
X0596476Y0019898D01*
X0596562Y0019920D01*
X0596648Y0019937D01*
X0596736Y0019951D01*
X0596824Y0019961D01*
X0596912Y0019967D01*
X0597000Y0019969D01*
X0597088Y0019967D01*
X0597176Y0019961D01*
X0597264Y0019951D01*
X0597352Y0019937D01*
X0597438Y0019920D01*
X0597524Y0019898D01*
X0597608Y0019873D01*
X0597692Y0019843D01*
X0597774Y0019811D01*
X0597854Y0019774D01*
X0597933Y0019734D01*
X0598010Y0019690D01*
X0598085Y0019643D01*
X0598157Y0019593D01*
X0598228Y0019539D01*
X0598295Y0019483D01*
X0598361Y0019423D01*
X0598423Y0019361D01*
X0598483Y0019295D01*
X0598539Y0019228D01*
X0598593Y0019157D01*
X0598643Y0019085D01*
X0598690Y0019010D01*
X0598734Y0018933D01*
X0598774Y0018854D01*
X0598811Y0018774D01*
X0598843Y0018692D01*
X0598873Y0018608D01*
X0598898Y0018524D01*
X0598920Y0018438D01*
X0598937Y0018352D01*
X0598951Y0018264D01*
X0598961Y0018176D01*
X0598967Y0018088D01*
X0598969Y0018000D01*
X0598967Y0017912D01*
X0598961Y0017824D01*
X0598951Y0017736D01*
X0598937Y0017648D01*
X0598920Y0017562D01*
X0598898Y0017476D01*
X0598873Y0017392D01*
X0598843Y0017308D01*
X0598811Y0017226D01*
X0598774Y0017146D01*
X0598734Y0017067D01*
X0598690Y0016990D01*
X0598643Y0016915D01*
X0598593Y0016843D01*
X0598539Y0016772D01*
X0598483Y0016705D01*
X0598423Y0016639D01*
X0598361Y0016577D01*
X0598295Y0016517D01*
X0598228Y0016461D01*
X0598157Y0016407D01*
X0598085Y0016357D01*
X0598010Y0016310D01*
X0597933Y0016266D01*
X0597854Y0016226D01*
X0597774Y0016189D01*
X0597692Y0016157D01*
X0597608Y0016127D01*
X0597524Y0016102D01*
X0597438Y0016080D01*
X0597352Y0016063D01*
X0597264Y0016049D01*
X0597176Y0016039D01*
X0597088Y0016033D01*
X0597000Y0016031D01*
X0596912Y0016033D01*
X0596824Y0016039D01*
X0596736Y0016049D01*
X0596648Y0016063D01*
X0596562Y0016080D01*
X0596476Y0016102D01*
X0596392Y0016127D01*
X0596308Y0016157D01*
X0596226Y0016189D01*
X0596146Y0016226D01*
X0596067Y0016266D01*
X0595990Y0016310D01*
X0595915Y0016357D01*
X0595843Y0016407D01*
X0595772Y0016461D01*
X0595705Y0016517D01*
X0595639Y0016577D01*
X0595577Y0016639D01*
X0595517Y0016705D01*
X0595461Y0016772D01*
X0595407Y0016843D01*
X0595357Y0016915D01*
X0595310Y0016990D01*
X0595266Y0017067D01*
X0595226Y0017146D01*
X0595189Y0017226D01*
X0595157Y0017308D01*
X0595127Y0017392D01*
X0595102Y0017476D01*
X0595080Y0017562D01*
X0595063Y0017648D01*
X0595049Y0017736D01*
X0595039Y0017824D01*
X0595033Y0017912D01*
X0595031Y0018000D01*
M02*
