%
M48
M72
T01C0.03150
T02C0.03200
T03C0.03937
T04C0.04000
T05C0.05200
T06C0.12598
%
T01
X382000Y53000
X392000Y53000
X402000Y53000
T02
X347000Y53000
X337000Y53000
X392000Y103000
X402000Y103000
X552000Y103000
X562000Y103000
X562000Y53000
X552000Y53000
X547000Y208000
X557000Y208000
T03
X592000Y193000
X597000Y223000
X327000Y223000
X277000Y218000
X267000Y218000
X257000Y218000
X247000Y218000
X237000Y218000
X227000Y218000
X217000Y218000
X207000Y218000
X191000Y218000
X181000Y218000
X171000Y218000
X161000Y218000
X151000Y218000
X141000Y218000
X131000Y218000
X121000Y218000
X327000Y193000
X327000Y153000
X337000Y83000
X277000Y28000
X267000Y28000
X257000Y28000
X247000Y28000
X237000Y28000
X227000Y28000
X207000Y28000
X197000Y28000
X187000Y28000
X177000Y28000
X167000Y28000
X157000Y28000
X332000Y18000
X537000Y103000
X582000Y88000
X592000Y53000
X597000Y18000
T04
X537000Y83000
X582000Y88000
X512000Y128000
X492000Y128000
X472000Y128000
X442000Y128000
X442000Y158000
X472000Y158000
X492000Y158000
X512000Y158000
X587000Y208000
X412000Y208000
X327000Y193000
X327000Y153000
X337000Y83000
T05
X436000Y53000
X456000Y53000
X498000Y53000
X518000Y53000
X518000Y208000
X498000Y208000
X456000Y208000
X436000Y208000
T06
X82000Y28000
X287000Y158000
X87000Y218000
M30
