<svg xmlns="http://www.w3.org/2000/svg" version="1.1" width="730.7mm" height="624.7mm" viewBox = " 0 0 2589.096617 2213.5057570000004" >
<!-- Front--> 
<g transform="translate(22.5000185, 22.5000185) " > 
<polygon style="stroke:#000000; fill:none; stroke-width:0.90000074" points="15.944894999999999, 0 103.6418175, 0 103.6418175, 15.944894999999999 149.97059575, 15.944894999999999 149.97059575, 88.937081 145.54145825, 88.937081 145.54145825, 97.795356 149.97059575, 97.795356 149.97059575, 106.653631 160.95485675, 106.653631 160.95485675, 97.795356 165.38399425, 97.795356 165.38399425, 88.937081 160.95485675, 88.937081 160.95485675, 15.944894999999999 207.283635, 15.944894999999999 207.283635, 0 281.693145, 0 281.693145, 15.944894999999999 356.102655, 15.944894999999999 356.102655, 0 430.512165, 0 430.512165, 15.944894999999999 504.921675, 15.944894999999999 504.921675, 0 579.331185, 0 579.331185, 15.944894999999999 653.740695, 15.944894999999999 653.740695, 0 728.150205, 0 728.150205, 15.944894999999999 802.559715, 15.944894999999999 802.559715, 0 876.9692249999999, 0 876.9692249999999, 15.944894999999999 923.29800325, 15.944894999999999 923.29800325, 88.937081 918.8688657499999, 88.937081 918.8688657499999, 97.795356 923.29800325, 97.795356 923.29800325, 106.653631 934.28226425, 106.653631 934.28226425, 97.795356 938.71140175, 97.795356 938.71140175, 88.937081 934.28226425, 88.937081 934.28226425, 15.944894999999999 980.6110424999999, 15.944894999999999 980.6110424999999, 0 1068.307965, 0 1068.307965, 103.6418175 1084.25286, 103.6418175 1084.25286, 148.90760275 1071.142613, 148.90760275 1071.142613, 162.01784975 1084.25286, 162.01784975 1084.25286, 207.283635 1068.307965, 207.283635 1068.307965, 281.693145 1084.25286, 281.693145 1084.25286, 356.102655 1068.307965, 356.102655 1068.307965, 430.512165 1084.25286, 430.512165 1084.25286, 504.921675 1068.307965, 504.921675 1068.307965, 579.331185 1084.25286, 579.331185 1084.25286, 653.740695 1068.307965, 653.740695 1068.307965, 728.150205 1084.25286, 728.150205 1084.25286, 802.559715 1068.307965, 802.559715 1068.307965, 876.9692249999999 1084.25286, 876.9692249999999 1084.25286, 922.23501025 1071.142613, 922.23501025 1071.142613, 935.34525725 1084.25286, 935.34525725 1084.25286, 980.6110424999999 1068.307965, 980.6110424999999 1068.307965, 1084.25286 980.6110424999999, 1084.25286 980.6110424999999, 1068.307965 934.28226425, 1068.307965 934.28226425, 995.315779 938.71140175, 995.315779 938.71140175, 986.457504 934.28226425, 986.457504 934.28226425, 977.5992289999999 923.29800325, 977.5992289999999 923.29800325, 986.457504 918.8688657499999, 986.457504 918.8688657499999, 995.315779 923.29800325, 995.315779 923.29800325, 1068.307965 876.9692249999999, 1068.307965 876.9692249999999, 1084.25286 802.559715, 1084.25286 802.559715, 1068.307965 728.150205, 1068.307965 728.150205, 1084.25286 653.740695, 1084.25286 653.740695, 1068.307965 579.331185, 1068.307965 579.331185, 1084.25286 504.921675, 1084.25286 504.921675, 1068.307965 430.512165, 1068.307965 430.512165, 1084.25286 356.102655, 1084.25286 356.102655, 1068.307965 281.693145, 1068.307965 281.693145, 1084.25286 207.283635, 1084.25286 207.283635, 1068.307965 160.95485675, 1068.307965 160.95485675, 995.315779 165.38399425, 995.315779 165.38399425, 986.457504 160.95485675, 986.457504 160.95485675, 977.5992289999999 149.97059575, 977.5992289999999 149.97059575, 986.457504 145.54145825, 986.457504 145.54145825, 995.315779 149.97059575, 995.315779 149.97059575, 1068.307965 103.6418175, 1068.307965 103.6418175, 1084.25286 15.944894999999999, 1084.25286 15.944894999999999, 980.6110424999999 0, 980.6110424999999 0, 935.34525725 13.110247000000001, 935.34525725 13.110247000000001, 922.23501025 0, 922.23501025 0, 876.9692249999999 15.944894999999999, 876.9692249999999 15.944894999999999, 802.559715 0, 802.559715 0, 728.150205 15.944894999999999, 728.150205 15.944894999999999, 653.740695 0, 653.740695 0, 579.331185 15.944894999999999, 579.331185 15.944894999999999, 504.921675 0, 504.921675 0, 430.512165 15.944894999999999, 430.512165 15.944894999999999, 356.102655 0, 356.102655 0, 281.693145 15.944894999999999, 281.693145 15.944894999999999, 207.283635 0, 207.283635 0, 162.01784975 13.110247000000001, 162.01784975 13.110247000000001, 148.90760275 0, 148.90760275 0, 103.6418175 15.944894999999999, 103.6418175 "/> 
</g>
<!-- Back--> 
<g transform="translate(1106.7528785000002, 22.5000185) " > 
<polygon style="stroke:#000000; fill:none; stroke-width:0.90000074" points="15.944894999999999, 0 103.6418175, 0 103.6418175, 15.944894999999999 149.97059575, 15.944894999999999 149.97059575, 88.937081 145.54145825, 88.937081 145.54145825, 97.795356 149.97059575, 97.795356 149.97059575, 106.653631 160.95485675, 106.653631 160.95485675, 97.795356 165.38399425, 97.795356 165.38399425, 88.937081 160.95485675, 88.937081 160.95485675, 15.944894999999999 207.283635, 15.944894999999999 207.283635, 0 281.693145, 0 281.693145, 15.944894999999999 356.102655, 15.944894999999999 356.102655, 0 430.512165, 0 430.512165, 15.944894999999999 504.921675, 15.944894999999999 504.921675, 0 579.331185, 0 579.331185, 15.944894999999999 653.740695, 15.944894999999999 653.740695, 0 728.150205, 0 728.150205, 15.944894999999999 802.559715, 15.944894999999999 802.559715, 0 876.9692249999999, 0 876.9692249999999, 15.944894999999999 923.29800325, 15.944894999999999 923.29800325, 88.937081 918.8688657499999, 88.937081 918.8688657499999, 97.795356 923.29800325, 97.795356 923.29800325, 106.653631 934.28226425, 106.653631 934.28226425, 97.795356 938.71140175, 97.795356 938.71140175, 88.937081 934.28226425, 88.937081 934.28226425, 15.944894999999999 980.6110424999999, 15.944894999999999 980.6110424999999, 0 1068.307965, 0 1068.307965, 103.6418175 1084.25286, 103.6418175 1084.25286, 148.90760275 1071.142613, 148.90760275 1071.142613, 162.01784975 1084.25286, 162.01784975 1084.25286, 207.283635 1068.307965, 207.283635 1068.307965, 281.693145 1084.25286, 281.693145 1084.25286, 356.102655 1068.307965, 356.102655 1068.307965, 430.512165 1084.25286, 430.512165 1084.25286, 504.921675 1068.307965, 504.921675 1068.307965, 579.331185 1084.25286, 579.331185 1084.25286, 653.740695 1068.307965, 653.740695 1068.307965, 728.150205 1084.25286, 728.150205 1084.25286, 802.559715 1068.307965, 802.559715 1068.307965, 876.9692249999999 1084.25286, 876.9692249999999 1084.25286, 922.23501025 1071.142613, 922.23501025 1071.142613, 935.34525725 1084.25286, 935.34525725 1084.25286, 980.6110424999999 1068.307965, 980.6110424999999 1068.307965, 1084.25286 980.6110424999999, 1084.25286 980.6110424999999, 1068.307965 934.28226425, 1068.307965 934.28226425, 995.315779 938.71140175, 995.315779 938.71140175, 986.457504 934.28226425, 986.457504 934.28226425, 977.5992289999999 923.29800325, 977.5992289999999 923.29800325, 986.457504 918.8688657499999, 986.457504 918.8688657499999, 995.315779 923.29800325, 995.315779 923.29800325, 1068.307965 876.9692249999999, 1068.307965 876.9692249999999, 1084.25286 802.559715, 1084.25286 802.559715, 1068.307965 728.150205, 1068.307965 728.150205, 1084.25286 653.740695, 1084.25286 653.740695, 1068.307965 579.331185, 1068.307965 579.331185, 1084.25286 504.921675, 1084.25286 504.921675, 1068.307965 430.512165, 1068.307965 430.512165, 1084.25286 356.102655, 1084.25286 356.102655, 1068.307965 281.693145, 1068.307965 281.693145, 1084.25286 207.283635, 1084.25286 207.283635, 1068.307965 160.95485675, 1068.307965 160.95485675, 995.315779 165.38399425, 995.315779 165.38399425, 986.457504 160.95485675, 986.457504 160.95485675, 977.5992289999999 149.97059575, 977.5992289999999 149.97059575, 986.457504 145.54145825, 986.457504 145.54145825, 995.315779 149.97059575, 995.315779 149.97059575, 1068.307965 103.6418175, 1068.307965 103.6418175, 1084.25286 15.944894999999999, 1084.25286 15.944894999999999, 980.6110424999999 0, 980.6110424999999 0, 935.34525725 13.110247000000001, 935.34525725 13.110247000000001, 922.23501025 0, 922.23501025 0, 876.9692249999999 15.944894999999999, 876.9692249999999 15.944894999999999, 802.559715 0, 802.559715 0, 728.150205 15.944894999999999, 728.150205 15.944894999999999, 653.740695 0, 653.740695 0, 579.331185 15.944894999999999, 579.331185 15.944894999999999, 504.921675 0, 504.921675 0, 430.512165 15.944894999999999, 430.512165 15.944894999999999, 356.102655 0, 356.102655 0, 281.693145 15.944894999999999, 281.693145 15.944894999999999, 207.283635 0, 207.283635 0, 162.01784975 13.110247000000001, 162.01784975 13.110247000000001, 148.90760275 0, 148.90760275 0, 103.6418175 15.944894999999999, 103.6418175 "/> 
</g>
<!-- Left--> 
<g transform="translate(2191.0057385, 22.5000185) " > 
<polygon style="stroke:#000000; fill:none; stroke-width:0.90000074" points="0, 15.944894999999999 75.118172, 15.944894999999999 75.118172, 0 150.236344, 0 150.236344, 15.944894999999999 182.3032995, 15.944894999999999 182.3032995, 88.937081 177.874162, 88.937081 177.874162, 97.795356 182.3032995, 97.795356 182.3032995, 106.653631 193.2875605, 106.653631 193.2875605, 97.795356 197.716698, 97.795356 197.716698, 88.937081 193.2875605, 88.937081 193.2875605, 15.944894999999999 225.354516, 15.944894999999999 225.354516, 0 300.472688, 0 300.472688, 15.944894999999999 375.59086, 15.944894999999999 375.59086, 103.6418175 359.64596500000005, 103.6418175 359.64596500000005, 149.97059575 286.65377900000004, 149.97059575 286.65377900000004, 145.54145825 277.79550400000005, 145.54145825 277.79550400000005, 149.97059575 268.93722900000006, 149.97059575 268.93722900000006, 160.95485675 277.79550400000005, 160.95485675 277.79550400000005, 165.38399425 286.65377900000004, 165.38399425 286.65377900000004, 160.95485675 359.64596500000005, 160.95485675 359.64596500000005, 207.283635 375.59086, 207.283635 375.59086, 281.693145 359.64596500000005, 281.693145 359.64596500000005, 356.102655 375.59086, 356.102655 375.59086, 430.512165 359.64596500000005, 430.512165 359.64596500000005, 504.921675 375.59086, 504.921675 375.59086, 579.331185 359.64596500000005, 579.331185 359.64596500000005, 653.740695 375.59086, 653.740695 375.59086, 728.150205 359.64596500000005, 728.150205 359.64596500000005, 802.559715 375.59086, 802.559715 375.59086, 876.9692249999999 359.64596500000005, 876.9692249999999 359.64596500000005, 923.29800325 286.65377900000004, 923.29800325 286.65377900000004, 918.8688657499999 277.79550400000005, 918.8688657499999 277.79550400000005, 923.29800325 268.93722900000006, 923.29800325 268.93722900000006, 934.28226425 277.79550400000005, 934.28226425 277.79550400000005, 938.71140175 286.65377900000004, 938.71140175 286.65377900000004, 934.28226425 359.64596500000005, 934.28226425 359.64596500000005, 980.6110424999999 375.59086, 980.6110424999999 375.59086, 1068.307965 300.472688, 1068.307965 300.472688, 1084.25286 225.354516, 1084.25286 225.354516, 1068.307965 193.2875605, 1068.307965 193.2875605, 995.315779 197.716698, 995.315779 197.716698, 986.457504 193.2875605, 986.457504 193.2875605, 977.5992289999999 182.3032995, 977.5992289999999 182.3032995, 986.457504 177.874162, 986.457504 177.874162, 995.315779 182.3032995, 995.315779 182.3032995, 1068.307965 150.236344, 1068.307965 150.236344, 1084.25286 75.118172, 1084.25286 75.118172, 1068.307965 0, 1068.307965 0, 980.6110424999999 15.944894999999999, 980.6110424999999 15.944894999999999, 934.28226425 88.937081, 934.28226425 88.937081, 938.71140175 97.795356, 938.71140175 97.795356, 934.28226425 106.653631, 934.28226425 106.653631, 923.29800325 97.795356, 923.29800325 97.795356, 918.8688657499999 88.937081, 918.8688657499999 88.937081, 923.29800325 15.944894999999999, 923.29800325 15.944894999999999, 876.9692249999999 0, 876.9692249999999 0, 802.559715 15.944894999999999, 802.559715 15.944894999999999, 728.150205 0, 728.150205 0, 653.740695 15.944894999999999, 653.740695 15.944894999999999, 579.331185 0, 579.331185 0, 504.921675 15.944894999999999, 504.921675 15.944894999999999, 430.512165 0, 430.512165 0, 356.102655 15.944894999999999, 356.102655 15.944894999999999, 281.693145 0, 281.693145 0, 207.283635 15.944894999999999, 207.283635 15.944894999999999, 160.95485675 88.937081, 160.95485675 88.937081, 165.38399425 97.795356, 165.38399425 97.795356, 160.95485675 106.653631, 160.95485675 106.653631, 149.97059575 97.795356, 149.97059575 97.795356, 145.54145825 88.937081, 145.54145825 88.937081, 149.97059575 15.944894999999999, 149.97059575 15.944894999999999, 103.6418175 0, 103.6418175 "/> 
</g>
<!-- Right--> 
<g transform="translate(2191.0057385, 1106.7528785000002) " > 
<polygon style="stroke:#000000; fill:none; stroke-width:0.90000074" points="0, 15.944894999999999 75.118172, 15.944894999999999 75.118172, 0 150.236344, 0 150.236344, 15.944894999999999 182.3032995, 15.944894999999999 182.3032995, 88.937081 177.874162, 88.937081 177.874162, 97.795356 182.3032995, 97.795356 182.3032995, 106.653631 193.2875605, 106.653631 193.2875605, 97.795356 197.716698, 97.795356 197.716698, 88.937081 193.2875605, 88.937081 193.2875605, 15.944894999999999 225.354516, 15.944894999999999 225.354516, 0 300.472688, 0 300.472688, 15.944894999999999 375.59086, 15.944894999999999 375.59086, 103.6418175 359.64596500000005, 103.6418175 359.64596500000005, 149.97059575 286.65377900000004, 149.97059575 286.65377900000004, 145.54145825 277.79550400000005, 145.54145825 277.79550400000005, 149.97059575 268.93722900000006, 149.97059575 268.93722900000006, 160.95485675 277.79550400000005, 160.95485675 277.79550400000005, 165.38399425 286.65377900000004, 165.38399425 286.65377900000004, 160.95485675 359.64596500000005, 160.95485675 359.64596500000005, 207.283635 375.59086, 207.283635 375.59086, 281.693145 359.64596500000005, 281.693145 359.64596500000005, 356.102655 375.59086, 356.102655 375.59086, 430.512165 359.64596500000005, 430.512165 359.64596500000005, 504.921675 375.59086, 504.921675 375.59086, 579.331185 359.64596500000005, 579.331185 359.64596500000005, 653.740695 375.59086, 653.740695 375.59086, 728.150205 359.64596500000005, 728.150205 359.64596500000005, 802.559715 375.59086, 802.559715 375.59086, 876.9692249999999 359.64596500000005, 876.9692249999999 359.64596500000005, 923.29800325 286.65377900000004, 923.29800325 286.65377900000004, 918.8688657499999 277.79550400000005, 918.8688657499999 277.79550400000005, 923.29800325 268.93722900000006, 923.29800325 268.93722900000006, 934.28226425 277.79550400000005, 934.28226425 277.79550400000005, 938.71140175 286.65377900000004, 938.71140175 286.65377900000004, 934.28226425 359.64596500000005, 934.28226425 359.64596500000005, 980.6110424999999 375.59086, 980.6110424999999 375.59086, 1068.307965 300.472688, 1068.307965 300.472688, 1084.25286 225.354516, 1084.25286 225.354516, 1068.307965 193.2875605, 1068.307965 193.2875605, 995.315779 197.716698, 995.315779 197.716698, 986.457504 193.2875605, 986.457504 193.2875605, 977.5992289999999 182.3032995, 977.5992289999999 182.3032995, 986.457504 177.874162, 986.457504 177.874162, 995.315779 182.3032995, 995.315779 182.3032995, 1068.307965 150.236344, 1068.307965 150.236344, 1084.25286 75.118172, 1084.25286 75.118172, 1068.307965 0, 1068.307965 0, 980.6110424999999 15.944894999999999, 980.6110424999999 15.944894999999999, 934.28226425 88.937081, 934.28226425 88.937081, 938.71140175 97.795356, 938.71140175 97.795356, 934.28226425 106.653631, 934.28226425 106.653631, 923.29800325 97.795356, 923.29800325 97.795356, 918.8688657499999 88.937081, 918.8688657499999 88.937081, 923.29800325 15.944894999999999, 923.29800325 15.944894999999999, 876.9692249999999 0, 876.9692249999999 0, 802.559715 15.944894999999999, 802.559715 15.944894999999999, 728.150205 0, 728.150205 0, 653.740695 15.944894999999999, 653.740695 15.944894999999999, 579.331185 0, 579.331185 0, 504.921675 15.944894999999999, 504.921675 15.944894999999999, 430.512165 0, 430.512165 0, 356.102655 15.944894999999999, 356.102655 15.944894999999999, 281.693145 0, 281.693145 0, 207.283635 15.944894999999999, 207.283635 15.944894999999999, 160.95485675 88.937081, 160.95485675 88.937081, 165.38399425 97.795356, 165.38399425 97.795356, 160.95485675 106.653631, 160.95485675 106.653631, 149.97059575 97.795356, 149.97059575 97.795356, 145.54145825 88.937081, 145.54145825 88.937081, 149.97059575 15.944894999999999, 149.97059575 15.944894999999999, 103.6418175 0, 103.6418175 "/> 
</g>
<!-- Top--> 
<g transform="translate(22.5000185, 1106.7528785000002) " > 
<polygon style="stroke:#000000; fill:none; stroke-width:0.90000074" points="0, 15.944894999999999 103.6418175, 15.944894999999999 103.6418175, 0 148.90760275, 0 148.90760275, 13.110247000000001 162.01784975, 13.110247000000001 162.01784975, 0 207.283635, 0 207.283635, 15.944894999999999 281.693145, 15.944894999999999 281.693145, 0 356.102655, 0 356.102655, 15.944894999999999 430.512165, 15.944894999999999 430.512165, 0 504.921675, 0 504.921675, 15.944894999999999 579.331185, 15.944894999999999 579.331185, 0 653.740695, 0 653.740695, 15.944894999999999 728.150205, 15.944894999999999 728.150205, 0 802.559715, 0 802.559715, 15.944894999999999 876.9692249999999, 15.944894999999999 876.9692249999999, 0 922.23501025, 0 922.23501025, 13.110247000000001 935.34525725, 13.110247000000001 935.34525725, 0 980.6110424999999, 0 980.6110424999999, 15.944894999999999 1084.25286, 15.944894999999999 1084.25286, 75.118172 1068.307965, 75.118172 1068.307965, 150.236344 1084.25286, 150.236344 1084.25286, 181.2403065 1071.142613, 181.2403065 1071.142613, 194.35055350000002 1084.25286, 194.35055350000002 1084.25286, 225.354516 1068.307965, 225.354516 1068.307965, 300.472688 1084.25286, 300.472688 1084.25286, 359.64596500000005 980.6110424999999, 359.64596500000005 980.6110424999999, 375.59086 935.34525725, 375.59086 935.34525725, 362.480613 922.23501025, 362.480613 922.23501025, 375.59086 876.9692249999999, 375.59086 876.9692249999999, 359.64596500000005 802.559715, 359.64596500000005 802.559715, 375.59086 728.150205, 375.59086 728.150205, 359.64596500000005 653.740695, 359.64596500000005 653.740695, 375.59086 579.331185, 375.59086 579.331185, 359.64596500000005 504.921675, 359.64596500000005 504.921675, 375.59086 430.512165, 375.59086 430.512165, 359.64596500000005 356.102655, 359.64596500000005 356.102655, 375.59086 281.693145, 375.59086 281.693145, 359.64596500000005 207.283635, 359.64596500000005 207.283635, 375.59086 162.01784975, 375.59086 162.01784975, 362.480613 148.90760275, 362.480613 148.90760275, 375.59086 103.6418175, 375.59086 103.6418175, 359.64596500000005 0, 359.64596500000005 0, 300.472688 15.944894999999999, 300.472688 15.944894999999999, 225.354516 0, 225.354516 0, 194.35055350000002 13.110247000000001, 194.35055350000002 13.110247000000001, 181.2403065 0, 181.2403065 0, 150.236344 15.944894999999999, 150.236344 15.944894999999999, 75.118172 0, 75.118172 "/> 
</g>
<!-- Bottom--> 
<g transform="translate(1106.7528785000002, 1106.7528785000002) " > 
<polygon style="stroke:#000000; fill:none; stroke-width:0.90000074" points="0, 15.944894999999999 103.6418175, 15.944894999999999 103.6418175, 0 148.90760275, 0 148.90760275, 13.110247000000001 162.01784975, 13.110247000000001 162.01784975, 0 207.283635, 0 207.283635, 15.944894999999999 281.693145, 15.944894999999999 281.693145, 0 356.102655, 0 356.102655, 15.944894999999999 430.512165, 15.944894999999999 430.512165, 0 504.921675, 0 504.921675, 15.944894999999999 579.331185, 15.944894999999999 579.331185, 0 653.740695, 0 653.740695, 15.944894999999999 728.150205, 15.944894999999999 728.150205, 0 802.559715, 0 802.559715, 15.944894999999999 876.9692249999999, 15.944894999999999 876.9692249999999, 0 922.23501025, 0 922.23501025, 13.110247000000001 935.34525725, 13.110247000000001 935.34525725, 0 980.6110424999999, 0 980.6110424999999, 15.944894999999999 1084.25286, 15.944894999999999 1084.25286, 75.118172 1068.307965, 75.118172 1068.307965, 150.236344 1084.25286, 150.236344 1084.25286, 181.2403065 1071.142613, 181.2403065 1071.142613, 194.35055350000002 1084.25286, 194.35055350000002 1084.25286, 225.354516 1068.307965, 225.354516 1068.307965, 300.472688 1084.25286, 300.472688 1084.25286, 359.64596500000005 980.6110424999999, 359.64596500000005 980.6110424999999, 375.59086 935.34525725, 375.59086 935.34525725, 362.480613 922.23501025, 362.480613 922.23501025, 375.59086 876.9692249999999, 375.59086 876.9692249999999, 359.64596500000005 802.559715, 359.64596500000005 802.559715, 375.59086 728.150205, 375.59086 728.150205, 359.64596500000005 653.740695, 359.64596500000005 653.740695, 375.59086 579.331185, 375.59086 579.331185, 359.64596500000005 504.921675, 359.64596500000005 504.921675, 375.59086 430.512165, 375.59086 430.512165, 359.64596500000005 356.102655, 359.64596500000005 356.102655, 375.59086 281.693145, 375.59086 281.693145, 359.64596500000005 207.283635, 359.64596500000005 207.283635, 375.59086 162.01784975, 375.59086 162.01784975, 362.480613 148.90760275, 362.480613 148.90760275, 375.59086 103.6418175, 375.59086 103.6418175, 359.64596500000005 0, 359.64596500000005 0, 300.472688 15.944894999999999, 300.472688 15.944894999999999, 225.354516 0, 225.354516 0, 194.35055350000002 13.110247000000001, 194.35055350000002 13.110247000000001, 181.2403065 0, 181.2403065 0, 150.236344 15.944894999999999, 150.236344 15.944894999999999, 75.118172 0, 75.118172 "/> 
</g></svg>